<?xml version="1.0" encoding="UTF-8" standalone="no"?>
<svg
   height="24px"
   viewBox="0 -960 960 960"
   width="24px"
   fill="#e8eaed"
   version="1.1"
   id="svg4"
   xmlns="http://www.w3.org/2000/svg"
   xmlns:svg="http://www.w3.org/2000/svg">
  <defs
     id="defs8" />
  <circle
     style="fill:#000000;stroke:#222222;stroke-width:0;stop-color:#000000"
     id="path847"
     cx="480"
     cy="-480"
     r="480" />
  <path
     d="M 480,-160 Q 346.66667,-160 253.33333,-253.33333 160,-346.66667 160,-480 160,-613.33333 253.33333,-706.66667 346.66667,-800 480,-800 q 12.44444,0 24.44444,0.88889 12,0.88889 23.55557,2.66666 -36.44446,25.77778 -58.22223,67.11112 Q 448,-688.00001 448,-640 q 0,79.99999 56,136 56.00001,56 136,56 48.88889,0 89.77778,-21.77778 40.88889,-21.77777 66.66667,-58.22223 1.77777,11.55557 2.66666,23.55557 Q 800,-492.44444 800,-480 800,-346.66667 706.66667,-253.33333 613.33333,-160 480,-160 Z m 0,-71.11111 q 78.22222,0 140.44444,-43.11111 62.22222,-43.11111 90.66667,-112.44445 -17.77777,4.44445 -35.55556,7.11111 -17.77777,2.66667 -35.55555,2.66667 -109.33333,0 -186.22222,-76.88889 Q 376.88889,-530.66667 376.88889,-640 q 0,-17.77778 2.66667,-35.55555 2.66666,-17.77779 7.11111,-35.55556 -69.33334,28.44445 -112.44445,90.66667 -43.11111,62.22222 -43.11111,140.44444 0,103.11111 72.88888,176.00001 72.8889,72.88888 176.00001,72.88888 z m -8.88889,-240 z"
     id="path2"
     style="stroke-width:0.888889" />
</svg>
