<?xml version="1.0" encoding="UTF-8" standalone="no"?>
<svg
   height="24px"
   viewBox="0 -960 960 960"
   width="24px"
   fill="#e8eaed"
   version="1.1"
   id="svg4"
   xmlns="http://www.w3.org/2000/svg"
   xmlns:svg="http://www.w3.org/2000/svg">
  <defs
     id="defs8" />
  <circle
     style="fill:#d0d0d0;stroke:#222222;stroke-width:0;stop-color:#000000;fill-opacity:1"
     id="path847"
     cx="480"
     cy="-479.99997"
     r="480" />
  <path
     d="m 480,-370.90909 q 45.45455,0 77.27273,-31.81818 31.81818,-31.81818 31.81818,-77.27273 0,-45.45455 -31.81818,-77.27273 Q 525.45455,-589.0909 480,-589.0909 q -45.45455,0 -77.27273,31.81817 -31.81817,31.81818 -31.81817,77.27273 0,45.45455 31.81817,77.27273 31.81818,31.81818 77.27273,31.81818 z m 0,72.72727 q -75.45454,0 -128.63636,-53.18182 Q 298.18182,-404.54546 298.18182,-480 q 0,-75.45454 53.18182,-128.63636 53.18182,-53.18182 128.63636,-53.18182 75.45454,0 128.63636,53.18182 53.18182,53.18182 53.18182,128.63636 0,75.45454 -53.18182,128.63636 Q 555.45454,-298.18182 480,-298.18182 Z M 225.45455,-443.63636 H 80.000002 v -72.72728 H 225.45455 Z m 654.54545,0 H 734.54546 v -72.72728 H 880 Z M 443.63636,-734.54545 V -880 h 72.72728 v 145.45455 z m 0,654.54545 v -145.45454 h 72.72728 V -80 Z m -167.27272,-554.54546 -91.81818,-88.18181 51.81818,-53.63637 87.27273,90.9091 z m 447.27273,450.9091 -88.18183,-91.81818 48.18182,-50 91.81818,88.18182 z m -89.09091,-500 88.18182,-91.81818 53.63636,51.81818 -90.90909,87.27273 z m -450.9091,447.27273 91.81819,-88.18183 49.99999,48.18182 -88.18181,91.81818 z M 480,-480 Z"
     id="path2"
     style="fill:#000000;stroke-width:0.909091" />
</svg>
